<svg width="65" height="70" viewBox="0 0 65 70" fill="none" xmlns="http://www.w3.org/2000/svg">
<path d="M30.2275 1.44997L0.225423 66.4484C-0.24461 67.4834 0.0354102 68.7184 0.925473 69.4383C1.3566 69.7906 1.89353 69.9881 2.45021 69.9989C3.0069 70.0098 3.55112 69.8335 3.99569 69.4983L32.4977 48.1238L60.9997 69.4983C61.9148 70.1883 63.1849 70.1633 64.0699 69.4433C64.675 68.9583 65 68.2334 65 67.4984C65 67.1434 64.925 66.7884 64.77 66.4534L34.7679 1.45496C34.3578 0.564987 33.4728 0 32.4977 0C31.5226 0 30.6376 0.564987 30.2275 1.44997Z" fill="white"/>
</svg>
