<svg width="415" height="438" viewBox="0 0 415 438" fill="none" xmlns="http://www.w3.org/2000/svg">
<g filter="url(#filter0_d_9_493)">
<rect width="406" height="434" rx="6" fill="#00439D"/>
</g>
<mask id="path-2-inside-1_9_493" fill="white">
<path d="M160.359 255.34C159.314 255.34 158.312 255.755 157.573 256.494C156.834 257.233 156.419 258.235 156.419 259.28V291.097C156.419 292.142 156.834 293.144 157.573 293.883C158.312 294.622 159.314 295.038 160.359 295.038H171.51C173.686 295.038 175.45 293.274 175.45 291.097C175.45 288.92 173.686 287.157 171.51 287.157H164.3V259.28C164.3 258.235 163.884 257.233 163.145 256.494C162.406 255.755 161.404 255.34 160.359 255.34ZM183.492 259.266V291.11C183.492 293.286 185.256 295.05 187.432 295.05C189.608 295.05 191.372 293.286 191.372 291.11V259.266C191.372 258.221 190.957 257.219 190.218 256.48C189.479 255.741 188.477 255.326 187.432 255.326C186.387 255.326 185.385 255.741 184.646 256.48C183.907 257.219 183.492 258.221 183.492 259.266ZM134.406 295.051C138.782 295.051 142.71 293.613 145.764 290.892C146.369 290.353 146.935 289.77 147.456 289.149C148.127 288.348 148.453 287.314 148.362 286.273C148.271 285.232 147.77 284.269 146.97 283.598C146.573 283.265 146.115 283.014 145.622 282.858C145.128 282.702 144.609 282.645 144.093 282.69C143.578 282.735 143.076 282.882 142.617 283.121C142.158 283.36 141.751 283.687 141.418 284.083C141.143 284.412 140.844 284.721 140.524 285.007C138.912 286.442 136.854 287.17 134.406 287.17C127.799 287.17 122.424 281.796 122.424 275.189C122.424 268.582 127.799 263.207 134.406 263.207C136.807 263.207 139.123 263.914 141.102 265.252C141.968 265.837 143.031 266.054 144.057 265.855C145.083 265.656 145.988 265.058 146.573 264.192C146.863 263.763 147.065 263.282 147.169 262.775C147.272 262.268 147.275 261.745 147.177 261.237C147.078 260.729 146.881 260.245 146.595 259.814C146.31 259.382 145.943 259.011 145.514 258.721C142.234 256.502 138.365 255.32 134.405 255.326C123.453 255.326 114.543 264.237 114.543 275.189C114.543 286.141 123.455 295.051 134.406 295.051ZM279.687 295.051C281.864 295.051 283.627 293.287 283.627 291.11V263.207H288.516C290.692 263.207 292.456 261.444 292.456 259.267C292.456 257.09 290.692 255.326 288.516 255.326H270.93C268.753 255.326 266.989 257.09 266.989 259.267C266.989 261.444 268.753 263.207 270.93 263.207H275.746V291.11C275.746 292.155 276.162 293.158 276.901 293.897C277.64 294.636 278.642 295.051 279.687 295.051ZM232.693 295.049C234.87 295.049 236.633 293.285 236.633 291.108V271.796L251.782 293.376C252.263 294.062 252.95 294.576 253.744 294.845C254.537 295.114 255.396 295.122 256.194 294.87C256.993 294.618 257.691 294.117 258.186 293.442C258.681 292.766 258.948 291.95 258.948 291.112V259.264C258.948 257.087 257.184 255.323 255.007 255.323C252.831 255.323 251.067 257.087 251.067 259.264V278.64L235.918 257.06C235.437 256.374 234.75 255.859 233.957 255.591C233.163 255.322 232.305 255.313 231.506 255.565C230.707 255.818 230.01 256.318 229.515 256.994C229.02 257.67 228.753 258.485 228.753 259.323V291.108C228.753 291.625 228.855 292.138 229.053 292.616C229.25 293.094 229.541 293.528 229.907 293.894C230.272 294.26 230.707 294.551 231.185 294.749C231.663 294.947 232.175 295.049 232.693 295.049ZM216.771 263.207C218.948 263.207 220.712 261.443 220.712 259.266C220.712 257.09 218.948 255.326 216.771 255.326H203.353C202.308 255.326 201.306 255.741 200.567 256.48C199.828 257.219 199.413 258.221 199.413 259.266V291.11C199.413 292.155 199.828 293.157 200.567 293.896C201.306 294.635 202.308 295.05 203.353 295.05H216.771C218.948 295.05 220.712 293.286 220.712 291.11C220.712 288.933 218.948 287.169 216.771 287.169H207.294V279.128H215.782C217.959 279.128 219.723 277.364 219.723 275.188C219.723 273.011 217.959 271.247 215.782 271.247H207.294V263.206L216.771 263.207ZM255.204 237.731V199.514C255.204 181.97 241.27 167.627 223.888 166.952C230.078 161.369 233.977 153.293 233.977 144.321C233.977 127.516 220.305 113.844 203.5 113.844C186.695 113.844 173.023 127.516 173.023 144.321C173.023 153.293 176.922 161.37 183.112 166.952C165.73 167.627 151.796 181.97 151.796 199.514V237.731C151.796 238.776 152.211 239.778 152.95 240.517C153.689 241.256 154.692 241.672 155.737 241.672H194.159C196.335 241.672 198.099 239.908 198.099 237.731C198.099 235.554 196.335 233.791 194.159 233.791H180.903V209.601C180.903 208.556 180.488 207.554 179.75 206.814L175.879 202.943C175.137 202.217 174.139 201.813 173.101 201.819C172.064 201.824 171.07 202.239 170.336 202.972C169.602 203.706 169.187 204.7 169.182 205.738C169.176 206.775 169.58 207.774 170.306 208.515L173.023 211.233V233.791H159.677V199.514C159.677 185.887 170.764 174.8 184.392 174.8H222.608C236.236 174.8 247.323 185.887 247.323 199.514V233.791H233.977V211.233L236.694 208.516C237.433 207.777 237.848 206.774 237.848 205.729C237.848 204.684 237.433 203.682 236.694 202.943C235.955 202.204 234.953 201.789 233.908 201.789C232.863 201.789 231.86 202.204 231.121 202.943L227.25 206.814C226.511 207.553 226.096 208.556 226.097 209.601V233.791H212.547C210.371 233.791 208.607 235.554 208.607 237.731C208.607 239.908 210.371 241.672 212.547 241.672H251.263C253.44 241.672 255.204 239.908 255.204 237.731ZM180.904 144.321C180.904 131.861 191.04 121.724 203.5 121.724C215.96 121.724 226.096 131.861 226.096 144.321C226.096 156.78 215.96 166.917 203.5 166.917C191.04 166.917 180.904 156.78 180.904 144.321Z"/>
</mask>
<path d="M160.359 255.34C159.314 255.34 158.312 255.755 157.573 256.494C156.834 257.233 156.419 258.235 156.419 259.28V291.097C156.419 292.142 156.834 293.144 157.573 293.883C158.312 294.622 159.314 295.038 160.359 295.038H171.51C173.686 295.038 175.45 293.274 175.45 291.097C175.45 288.92 173.686 287.157 171.51 287.157H164.3V259.28C164.3 258.235 163.884 257.233 163.145 256.494C162.406 255.755 161.404 255.34 160.359 255.34ZM183.492 259.266V291.11C183.492 293.286 185.256 295.05 187.432 295.05C189.608 295.05 191.372 293.286 191.372 291.11V259.266C191.372 258.221 190.957 257.219 190.218 256.48C189.479 255.741 188.477 255.326 187.432 255.326C186.387 255.326 185.385 255.741 184.646 256.48C183.907 257.219 183.492 258.221 183.492 259.266ZM134.406 295.051C138.782 295.051 142.71 293.613 145.764 290.892C146.369 290.353 146.935 289.77 147.456 289.149C148.127 288.348 148.453 287.314 148.362 286.273C148.271 285.232 147.77 284.269 146.97 283.598C146.573 283.265 146.115 283.014 145.622 282.858C145.128 282.702 144.609 282.645 144.093 282.69C143.578 282.735 143.076 282.882 142.617 283.121C142.158 283.36 141.751 283.687 141.418 284.083C141.143 284.412 140.844 284.721 140.524 285.007C138.912 286.442 136.854 287.17 134.406 287.17C127.799 287.17 122.424 281.796 122.424 275.189C122.424 268.582 127.799 263.207 134.406 263.207C136.807 263.207 139.123 263.914 141.102 265.252C141.968 265.837 143.031 266.054 144.057 265.855C145.083 265.656 145.988 265.058 146.573 264.192C146.863 263.763 147.065 263.282 147.169 262.775C147.272 262.268 147.275 261.745 147.177 261.237C147.078 260.729 146.881 260.245 146.595 259.814C146.31 259.382 145.943 259.011 145.514 258.721C142.234 256.502 138.365 255.32 134.405 255.326C123.453 255.326 114.543 264.237 114.543 275.189C114.543 286.141 123.455 295.051 134.406 295.051ZM279.687 295.051C281.864 295.051 283.627 293.287 283.627 291.11V263.207H288.516C290.692 263.207 292.456 261.444 292.456 259.267C292.456 257.09 290.692 255.326 288.516 255.326H270.93C268.753 255.326 266.989 257.09 266.989 259.267C266.989 261.444 268.753 263.207 270.93 263.207H275.746V291.11C275.746 292.155 276.162 293.158 276.901 293.897C277.64 294.636 278.642 295.051 279.687 295.051ZM232.693 295.049C234.87 295.049 236.633 293.285 236.633 291.108V271.796L251.782 293.376C252.263 294.062 252.95 294.576 253.744 294.845C254.537 295.114 255.396 295.122 256.194 294.87C256.993 294.618 257.691 294.117 258.186 293.442C258.681 292.766 258.948 291.95 258.948 291.112V259.264C258.948 257.087 257.184 255.323 255.007 255.323C252.831 255.323 251.067 257.087 251.067 259.264V278.64L235.918 257.06C235.437 256.374 234.75 255.859 233.957 255.591C233.163 255.322 232.305 255.313 231.506 255.565C230.707 255.818 230.01 256.318 229.515 256.994C229.02 257.67 228.753 258.485 228.753 259.323V291.108C228.753 291.625 228.855 292.138 229.053 292.616C229.25 293.094 229.541 293.528 229.907 293.894C230.272 294.26 230.707 294.551 231.185 294.749C231.663 294.947 232.175 295.049 232.693 295.049ZM216.771 263.207C218.948 263.207 220.712 261.443 220.712 259.266C220.712 257.09 218.948 255.326 216.771 255.326H203.353C202.308 255.326 201.306 255.741 200.567 256.48C199.828 257.219 199.413 258.221 199.413 259.266V291.11C199.413 292.155 199.828 293.157 200.567 293.896C201.306 294.635 202.308 295.05 203.353 295.05H216.771C218.948 295.05 220.712 293.286 220.712 291.11C220.712 288.933 218.948 287.169 216.771 287.169H207.294V279.128H215.782C217.959 279.128 219.723 277.364 219.723 275.188C219.723 273.011 217.959 271.247 215.782 271.247H207.294V263.206L216.771 263.207ZM255.204 237.731V199.514C255.204 181.97 241.27 167.627 223.888 166.952C230.078 161.369 233.977 153.293 233.977 144.321C233.977 127.516 220.305 113.844 203.5 113.844C186.695 113.844 173.023 127.516 173.023 144.321C173.023 153.293 176.922 161.37 183.112 166.952C165.73 167.627 151.796 181.97 151.796 199.514V237.731C151.796 238.776 152.211 239.778 152.95 240.517C153.689 241.256 154.692 241.672 155.737 241.672H194.159C196.335 241.672 198.099 239.908 198.099 237.731C198.099 235.554 196.335 233.791 194.159 233.791H180.903V209.601C180.903 208.556 180.488 207.554 179.75 206.814L175.879 202.943C175.137 202.217 174.139 201.813 173.101 201.819C172.064 201.824 171.07 202.239 170.336 202.972C169.602 203.706 169.187 204.7 169.182 205.738C169.176 206.775 169.58 207.774 170.306 208.515L173.023 211.233V233.791H159.677V199.514C159.677 185.887 170.764 174.8 184.392 174.8H222.608C236.236 174.8 247.323 185.887 247.323 199.514V233.791H233.977V211.233L236.694 208.516C237.433 207.777 237.848 206.774 237.848 205.729C237.848 204.684 237.433 203.682 236.694 202.943C235.955 202.204 234.953 201.789 233.908 201.789C232.863 201.789 231.86 202.204 231.121 202.943L227.25 206.814C226.511 207.553 226.096 208.556 226.097 209.601V233.791H212.547C210.371 233.791 208.607 235.554 208.607 237.731C208.607 239.908 210.371 241.672 212.547 241.672H251.263C253.44 241.672 255.204 239.908 255.204 237.731ZM180.904 144.321C180.904 131.861 191.04 121.724 203.5 121.724C215.96 121.724 226.096 131.861 226.096 144.321C226.096 156.78 215.96 166.917 203.5 166.917C191.04 166.917 180.904 156.78 180.904 144.321Z" fill="white" stroke="white" stroke-width="44" mask="url(#path-2-inside-1_9_493)"/>
<path d="M117.289 319.735L117.295 319.728L117.289 319.735ZM310.447 134.934C310.031 134.388 309.609 133.844 309.184 133.304C308.718 132.713 308.248 132.126 307.772 131.543C307.429 131.123 307.084 130.704 306.736 130.288L310.447 134.934Z" fill="white" stroke="white" stroke-width="22"/>
<defs>
<filter id="filter0_d_9_493" x="0" y="0" width="415" height="438" filterUnits="userSpaceOnUse" color-interpolation-filters="sRGB">
<feFlood flood-opacity="0" result="BackgroundImageFix"/>
<feColorMatrix in="SourceAlpha" type="matrix" values="0 0 0 0 0 0 0 0 0 0 0 0 0 0 0 0 0 0 127 0" result="hardAlpha"/>
<feOffset dx="9" dy="4"/>
<feComposite in2="hardAlpha" operator="out"/>
<feColorMatrix type="matrix" values="0 0 0 0 0.0473611 0 0 0 0 0.183324 0 0 0 0 0.366667 0 0 0 1 0"/>
<feBlend mode="normal" in2="BackgroundImageFix" result="effect1_dropShadow_9_493"/>
<feBlend mode="normal" in="SourceGraphic" in2="effect1_dropShadow_9_493" result="shape"/>
</filter>
</defs>
</svg>
