<svg width="309" height="309" viewBox="0 0 309 309" fill="none" xmlns="http://www.w3.org/2000/svg">
<path d="M194.194 84.2914C194.075 84.4105 193.898 84.47 193.779 84.5282C194.49 87.731 194.313 91.1124 193.719 94.3748C195.735 96.629 194.846 101.077 190.932 101.077C185.357 101.017 179.84 101.017 174.266 101.017C187.788 138.206 206.057 177.293 215.192 215.847C219.581 199.062 225.452 182.633 228.241 165.432C232.867 137.199 225.275 118.1 217.386 91.7647C213.056 77.4704 214.599 65.3709 223.08 56.2956C196.567 38.6796 166.733 29.6638 134.17 35.1804C113.47 38.62 94.964 47.1026 78.6536 60.2697C72.3075 65.4304 66.91 71.2421 60.6221 76.0469C70.171 76.0469 79.7212 76.3433 89.2106 76.5801C92.0575 76.6992 93.5405 78.8344 93.6596 81.0873C94.4904 81.68 95.083 82.6299 95.2021 84.0533C95.2021 84.4092 95.2616 84.7651 95.2616 85.1209C95.4984 89.1545 95.2616 93.3059 95.1426 97.3395C95.083 99.3556 93.3632 101.433 91.1685 101.314C86.8386 101.017 82.5086 100.365 78.1787 99.6533C93.7773 134.885 106.649 171.837 121.003 207.722C121.834 205.468 122.723 203.215 123.554 200.96C128.003 181.861 133.399 162.289 141.229 145.088C134.23 131.03 128.595 114.778 125.748 99.595C120.291 99.1796 114.834 98.7047 109.379 97.993C107.243 97.6966 106.353 95.7982 106.768 94.2557C106.505 93.8012 106.344 93.2954 106.294 92.7727C105.938 90.0448 105.641 87.4347 105.522 84.7068C105.463 83.8165 105.463 82.9275 105.463 82.0372C105.463 79.7234 107.063 78.538 108.785 78.2999C109.021 77.7072 109.437 77.1728 110.149 77.0537C125.51 74.5626 141.17 75.3934 156.649 75.5707C167.029 75.6898 184.17 72.6047 193.72 77.231C196.271 78.4177 196.331 82.0359 194.611 83.8734L194.194 84.2914ZM262.404 47.3394C309.855 90.1639 319.404 159.797 295.205 217.567C269.344 279.193 208.015 303.215 145.143 308.02C143.838 308.139 142.888 307.723 142.236 307.071C73.3143 305.588 13.8831 254.579 2.19771 185.243C-8.59737 121.362 21.7717 57.7191 75.8649 22.9619C139.093 -17.6679 208.725 -1.17891 262.404 47.3394ZM224.562 254.045C262.818 216.974 282.985 172.965 270.055 119.346C255.108 164.245 240.162 209.382 224.562 254.045ZM191.407 273.322C183.993 259.739 179.484 244.318 173.969 229.964C167.741 213.772 161.217 197.638 155.405 181.328C144.135 213.654 133.103 246.216 119.816 277.534C132.806 279.55 145.796 280.974 158.963 280.025C170.409 279.252 180.671 276.109 191.407 273.322ZM94.4295 264.366C75.39 213.179 54.2152 162.347 37.1931 110.508C8.78191 168.752 40.8695 232.336 94.4295 264.366Z" fill="#0071BC"/>
</svg>
