<svg width="308" height="148" viewBox="0 0 308 148" fill="none" xmlns="http://www.w3.org/2000/svg">
<path d="M28.0827 85.8235C18.9564 85.8235 10.1079 82.8835 4.34767 79.9292L0 97.6216C5.33404 100.571 16.0117 103.377 26.8234 103.377C52.8041 103.377 65.0188 89.8982 65.0188 74.0302C65.0188 60.6903 57.1518 51.9853 40.4458 45.8038C28.2264 41.164 22.8923 38.5018 22.8923 32.4639C22.8923 27.5464 27.3836 23.3328 36.6536 23.3328C45.9235 23.3328 52.6653 26.0046 56.4527 27.8289L61.2313 10.558C55.61 8.02979 47.7478 5.78413 37.0749 5.78413C14.7476 5.78413 1.26408 18.1377 1.26408 34.2882C1.26408 48.0495 11.5156 56.7544 27.2448 62.2321C38.6167 66.3068 43.1128 69.6777 43.1128 75.5672C43.1128 81.7535 37.9129 85.8235 28.0827 85.8235ZM139.868 84.4205H100.973V61.9544H135.793V44.5397H100.973V24.8794H137.905V7.32593H79.4839V101.974H139.868V84.4205ZM212.241 109.156C225.528 109.156 237.705 104.373 247.185 96.4532L266.036 114.045C266.008 116.008 266.721 117.952 268.263 119.393L295.924 145.221C297.308 146.514 299.061 147.151 300.818 147.151C302.259 147.149 303.667 146.714 304.858 145.902C306.049 145.09 306.969 143.939 307.498 142.598C308.027 141.257 308.141 139.788 307.825 138.382C307.509 136.975 306.778 135.697 305.726 134.711L278.064 108.888C277.331 108.212 276.463 107.697 275.518 107.378C274.573 107.058 273.571 106.942 272.577 107.035L253.975 89.678C262.277 79.8645 266.831 67.4252 266.827 54.571C266.827 24.4772 242.349 0 212.256 0C182.162 0 157.67 24.4868 157.67 54.5758C157.665 84.6791 182.147 109.156 212.241 109.156ZM212.241 14.3694C234.415 14.3694 252.452 32.4065 252.452 54.5758C252.452 76.7451 234.406 94.7869 212.241 94.7869C190.077 94.7869 172.03 76.7451 172.03 54.5758C172.03 32.4065 190.067 14.3694 212.241 14.3694Z" fill="#0071BC"/>
</svg>
